<svg height="800" viewBox="-4.12599 -7.65905 35.75858 45.9543" width="1200" xmlns="http://www.w3.org/2000/svg" xmlns:xlink="http://www.w3.org/1999/xlink"><linearGradient id="a" gradientUnits="userSpaceOnUse" x1="14.09" x2="-5.9" y1="1.87" y2="21.86"><stop offset="0" stop-color="#008eff"/><stop offset=".01" stop-color="#008fff"/><stop offset=".26" stop-color="#00acff"/><stop offset=".51" stop-color="#00c0ff"/><stop offset=".76" stop-color="#00cdff"/><stop offset="1" stop-color="#00d1ff"/></linearGradient><linearGradient id="b" gradientUnits="userSpaceOnUse" x1="26.45" x2="-2.37" y1="15.32" y2="15.32"><stop offset="0" stop-color="#ffd800"/><stop offset="1" stop-color="#ff8a00"/></linearGradient><linearGradient id="c" gradientUnits="userSpaceOnUse" x1="17.69" x2="-9.41" y1="18.05" y2="45.15"><stop offset="0" stop-color="#ff3a44"/><stop offset="1" stop-color="#b11162"/></linearGradient><linearGradient id="d" gradientUnits="userSpaceOnUse" x1="-3.19" x2="8.92" y1="-8.29" y2="3.81"><stop offset="0" stop-color="#328e71"/><stop offset=".07" stop-color="#2d9571"/><stop offset=".48" stop-color="#15bd74"/><stop offset=".8" stop-color="#06d575"/><stop offset="1" stop-color="#00de76"/></linearGradient><g transform="translate(.004)"><path d="m.55.48a2.39 2.39 0 0 0 -.55 1.67v26.34a2.41 2.41 0 0 0 .55 1.67l.09.09 14.75-14.76v-.35l-14.75-14.75z" fill="url(#a)"/><path d="m20.31 20.41-4.92-4.92v-.35l4.92-4.91.11.06 5.83 3.31c1.67.94 1.67 2.49 0 3.44l-5.83 3.31z" fill="url(#b)"/><path d="m20.42 20.35-5-5-14.87 14.81a2 2 0 0 0 2.45.07l17.39-9.88" fill="url(#c)"/><path d="m20.42 10.29-17.42-9.89a1.93 1.93 0 0 0 -2.45.08l14.84 14.84z" fill="url(#d)"/><path d="m20.31 20.24-17.31 9.82a2 2 0 0 1 -2.39 0l-.09.09.09.09a2 2 0 0 0 2.39 0l17.39-9.88z" opacity=".1"/><path d="m.55 30a2.43 2.43 0 0 1 -.55-1.68v.17a2.41 2.41 0 0 0 .55 1.67l.09-.09z" opacity=".07"/><path d="m26.25 16.86-5.94 3.38.11.11 5.83-3.35a2.11 2.11 0 0 0 1.25-1.72 2.21 2.21 0 0 1 -1.25 1.58z" opacity=".07"/><path d="m3 .58 23.25 13.19a2.2 2.2 0 0 1 1.25 1.55 2.09 2.09 0 0 0 -1.25-1.72l-23.25-13.2c-1.64-.94-3-.16-3 1.75v.17c0-1.9 1.36-2.69 3-1.74z" fill="#fff" opacity=".3"/></g></svg>