<svg height="539.28592" viewBox="0 0 744 539.28592" width="744" xmlns="http://www.w3.org/2000/svg"><g transform="translate(-228 -180.35704)"><path d="m702.11417 584.643v130h-325.69875c-37.109 0-67.30125-29.15983-67.30125-65s30.19221-65 67.30125-65z" fill="#f2f2f2"/><path d="m710.11417 713.643a5.002 5.002 0 0 1 -5 5h-334.5a68.5 68.5 0 1 1 0-137h334.5a5 5 0 0 1 0 10h-334.5a58.5 58.5 0 1 0 0 117h334.5a5.002 5.002 0 0 1 5 5z" fill="#1889f8"/><path d="m702.11417 614.643h-350a1 1 0 1 1 0-2h350a1 1 0 0 1 0 2z" fill="#ccc"/><path d="m702.11417 638.643h-350a1 1 0 1 1 0-2h350a1 1 0 0 1 0 2z" fill="#ccc"/><path d="m702.11417 662.643h-350a1 1 0 1 1 0-2h350a1 1 0 0 1 0 2z" fill="#ccc"/><path d="m702.11417 686.643h-350a1 1 0 1 1 0-2h350a1 1 0 0 1 0 2z" fill="#ccc"/><path d="m953.83158 609.11391-81.56473 101.22844-253.61518-204.35023c-28.89608-23.283-34.11066-64.9324-11.62379-92.84043s64.29244-31.671 93.18852-8.388z" fill="#f2f2f2"/><path d="m879.12372 714.583a5.002 5.002 0 0 1 -7.03051.7563l-260.46854-209.8723a68.5 68.5 0 0 1 85.95667-106.6792l260.46854 209.87234a5 5 0 1 1 -6.27421 7.7868l-260.46854-209.87231a58.5 58.5 0 1 0 -73.40825 91.10558l260.46854 209.87232a5.002 5.002 0 0 1 .7563 7.03047z" fill="#ccc"/><path d="m935.009 632.47432-272.53814-219.59732a1 1 0 1 1 1.25485-1.55736l272.53808 219.59736a1 1 0 1 1 -1.25484 1.55736z" fill="#ccc"/><path d="m919.95085 651.16265-272.53809-219.59734a1 1 0 0 1 1.25484-1.55736l272.53809 219.59734a1 1 0 1 1 -1.25484 1.55736z" fill="#ccc"/><path d="m904.89274 669.851-272.53808-219.59736a1 1 0 0 1 1.25484-1.55737l272.53809 219.59734a1 1 0 1 1 -1.25485 1.55736z" fill="#ccc"/><path d="m889.83464 688.5393-272.53809-219.5973a1 1 0 1 1 1.25485-1.55736l272.53808 219.5973a1 1 0 1 1 -1.25484 1.55736z" fill="#ccc"/><path d="m971 719.643h-742a1 1 0 0 1 0-2h742a1 1 0 0 1 0 2z" fill="#ccc"/></g><path d="m338.081 390.622-11.432-.001-5.437-44.096 16.873.002z" fill="#ffb8b8"/><path d="m318.48241 387.35454h22.04781a0 0 0 0 1 0 0v13.88195a0 0 0 0 1 0 0h-35.92974a0 0 0 0 1 0 0 13.88193 13.88193 0 0 1 13.88193-13.88195z" fill="#2f2e41"/><path d="m221.286 390.622-11.432-.001-5.437-44.096 16.873.002z" fill="#ffb8b8"/><path d="m201.68787 387.35454h22.04781a0 0 0 0 1 0 0v13.88195a0 0 0 0 1 0 0h-35.92974a0 0 0 0 1 0 0 13.88193 13.88193 0 0 1 13.88193-13.88195z" fill="#2f2e41"/><path d="m487.47085 243.89011v-5.00006a32.25 32.25 0 0 1 32.25-32.25h.00006a32.25 32.25 0 0 1 32.25 32.25v5.00006a23.25 23.25 0 0 1 -23.25 23.25h-18a23.25 23.25 0 0 1 -23.25006-23.25z" fill="#2f2e41" transform="translate(-228 -180.35704)"/><circle cx="291.72085" cy="63.94249" fill="#ffb8b8" r="24.56103"/><path d="m386.12458 328.7126a9.377 9.377 0 0 1 14.28028 1.6774l21.05462-3.98267 5.5409 12.20454-29.8122 5.2067a9.42779 9.42779 0 0 1 -11.0636-15.106z" fill="#ffb8b8" transform="translate(-228 -180.35704)"/><path d="m500.57256 284.32827.27536.41722-34.52582 22.74437-58.25831 18.60329a3.5078 3.5078 0 0 0 -2.412 3.73827l1.2709 10.94662a3.50073 3.50073 0 0 0 4.21024 3.01849l54.82973-11.75277a19.80593 19.80593 0 0 0 7.37148-3.24548l38.78786-27.59689a10.01984 10.01984 0 0 0 4.1584-8.94749 9.9752 9.9752 0 0 0 -15.43253-7.50841z" fill="#ccc" transform="translate(-228 -180.35704)"/><path d="m554.85319 558.46572a4.51847 4.51847 0 0 1 -4.1377-2.70118l-52.40991-129.501a1.49982 1.49982 0 0 0 -2.80859.1582l-42.75831 126.07376a4.50087 4.50087 0 0 1 -5.88159 2.89111l-14.33838-5.37695a4.48887 4.48887 0 0 1 -2.897-3.70459c-6.45044-56.19238 49.80005-198.02978 50.36914-199.45556l.15747-.395 51.2771 11.34277.10669.11621c20.45777 22.31787 37.27344 163.082 40.43677 191.07373a4.47857 4.47857 0 0 1 -2.97119 4.74658l-12.65625 4.47608a4.45661 4.45661 0 0 1 -1.48825.25584z" fill="#2f2e41" transform="translate(-228 -180.35704)"/><path d="m510.67252 362.36269c-12.42358 0-26.27441-2.477-30.53784-12.70068l-.09814-.23487.13256-.21777c3.36524-5.52149 7.813-14.94043 5.42237-16.7085-4.70923-3.48193-6.99439-9.21-6.79151-17.02539.44043-16.96582 12.00049-32.02881 28.76587-37.48242h.00025a127.64221 127.64221 0 0 1 14.26292-3.67236 24.28073 24.28073 0 0 1 20.13257 4.97168 24.5264 24.5264 0 0 1 9.09594 18.8706c.17578 18.13086-2.61548 43.3833-16.91211 60.72022a4.44777 4.44777 0 0 1 -2.633 1.53125 122.223 122.223 0 0 1 -20.83988 1.94824z" fill="#ccc" transform="translate(-228 -180.35704)"/><path d="m506.05111 361.68381a9.55593 9.55593 0 0 1 11.67847-6.66417 9.40742 9.40742 0 0 1 1.44781.53625l15.98666-14.54884 11.118 7.49027-22.86179 20.23092a9.53906 9.53906 0 0 1 -10.81319 4.58661 9.39418 9.39418 0 0 1 -6.55596-11.63104z" fill="#ffb8b8" transform="translate(-228 -180.35704)"/><path d="m532.63175 361.86855a4.48762 4.48762 0 0 1 -2.84546-1.01514l-6.30444-5.15185a4.49995 4.49995 0 0 1 .10913-7.05518l26.44165-20.27978a1.50334 1.50334 0 0 0 .28345-2.09473l-16.32031-21.57617a13.28507 13.28507 0 0 1 .88745-17.11426 13.24793 13.24793 0 0 1 17.88769-1.43067l.10327.10889 17.042 24.40235a15.19267 15.19267 0 0 1 -.36011 24.18554l-34.24561 26.13867a4.50736 4.50736 0 0 1 -2.67871.88233z" fill="#ccc" transform="translate(-228 -180.35704)"/><path d="m497.96524 237.39008v-12.18615l21.75561-9.5 20.74439 9.5v12.18615a2 2 0 0 1 -2 2h-38.5a2 2 0 0 1 -2-2z" fill="#2f2e41" transform="translate(-228 -180.35704)"/><path d="m518.72211 208.25668c-3.19879-10.23852 3.51931-21.97233 13.45085-26.025s21.81344-1.21974 30.19368 5.47588 13.57963 16.72441 16.33459 27.09118 3.27788 21.17682 3.7865 31.89135c12.20223 2.24139 20.50283 16.71428 16.27576 28.37833s-19.87268 17.45879-30.67781 11.3623-13.93468-22.48461-6.13639-32.1337a26.37385 26.37385 0 0 0 -30.68776-40.9097c-6.0138 2.51492-13.55953-4.01939-12.53942-5.13064z" fill="#2f2e41" transform="translate(-228 -180.35704)"/><path d="m381.61417 281.43984a104.44868 104.44868 0 0 1 -42.34814-9.2749 4.47254 4.47254 0 0 1 -2.65186-4.104v-36.41794a4.505 4.505 0 0 1 4.5-4.5h81a4.50508 4.50508 0 0 1 4.5 4.5v36.418a4.47272 4.47272 0 0 1 -2.65185 4.104 104.44869 104.44869 0 0 1 -42.34815 9.27484z" fill="#1889f8" transform="translate(-228 -180.35704)"/><path d="m381.60306 251.93691a4.50521 4.50521 0 0 1 -1.74865-.35156l-64.23194-27.09961a4.49965 4.49965 0 0 1 .15308-8.353l64.23279-24.36774a4.48365 4.48365 0 0 1 3.2113.00684l63.37207 24.36767a4.50012 4.50012 0 0 1 .15406 8.3379l-63.37277 27.09915a4.507 4.507 0 0 1 -1.76994.36035z" fill="#1889f8" transform="translate(-228 -180.35704)"/><circle cx="116.11417" cy="88.28592" fill="#3f3d56" r="6"/><path d="m446.96476 220.63082-63.37305 27.09918a3.99993 3.99993 0 0 1 -3.12744.00757l-64.23193-27.09882a3.92451 3.92451 0 0 1 -1.9126-1.68109 3.997 3.997 0 0 0 1.9126 5.68109l64.23193 27.09882a3.99993 3.99993 0 0 0 3.12744-.00757l63.37305-27.09918a3.99713 3.99713 0 0 0 1.89453-5.67322 3.92676 3.92676 0 0 1 -1.89453 1.67322z" opacity=".2" transform="translate(-228 -180.35704)"/><path d="m344.61832 268.61952a1 1 0 0 0 1-1v-33.46142l32.9812-12.01514a1.00011 1.00011 0 0 0 .02979-2l-32.9812 12.01514a1.96167 1.96167 0 0 0 -1.43335.57519 1.98569 1.98569 0 0 0 -.59644 1.42481v33.46142a1.00005 1.00005 0 0 0 1 1z" fill="#3f3d56" transform="translate(-228 -180.35704)"/></svg>