<svg height="634.12253" viewBox="0 0 782.39009 634.12253" width="782.39009" xmlns="http://www.w3.org/2000/svg"><path d="m782.009 634.123h-257.739v-2.106h258.12z" fill="#3f3d56"/><circle cx="6.81265" cy="6.81404" fill="#e6e6e6" r="6.81334"/><circle cx="41.30169" cy="6.81404" fill="#e6e6e6" r="6.81334"/><circle cx="75.79073" cy="6.81404" fill="#e6e6e6" r="6.81334"/><circle cx="110.27977" cy="6.81404" fill="#e6e6e6" r="6.81334"/><circle cx="144.76881" cy="6.81404" fill="#e6e6e6" r="6.81334"/><circle cx="179.25785" cy="6.81404" fill="#e6e6e6" r="6.81334"/><circle cx="213.74689" cy="6.81404" fill="#e6e6e6" r="6.81334"/><circle cx="248.23593" cy="6.81404" fill="#e6e6e6" r="6.81334"/><circle cx="282.72497" cy="6.81404" fill="#e6e6e6" r="6.81334"/><circle cx="317.21401" cy="6.81404" fill="#e6e6e6" r="6.81334"/><circle cx="6.81265" cy="41.73599" fill="#e6e6e6" r="6.81334"/><circle cx="41.30169" cy="41.73599" fill="#e6e6e6" r="6.81334"/><circle cx="75.79073" cy="41.73599" fill="#e6e6e6" r="6.81334"/><circle cx="110.27977" cy="41.73599" fill="#1889f8" r="6.81334"/><circle cx="144.76881" cy="41.73599" fill="#e6e6e6" r="6.81334"/><circle cx="179.25785" cy="41.73599" fill="#e6e6e6" r="6.81334"/><circle cx="213.74689" cy="41.73599" fill="#e6e6e6" r="6.81334"/><circle cx="248.23593" cy="41.73599" fill="#e6e6e6" r="6.81334"/><circle cx="282.72497" cy="41.73599" fill="#e6e6e6" r="6.81334"/><circle cx="317.21401" cy="41.73599" fill="#e6e6e6" r="6.81334"/><circle cx="6.81265" cy="76.65794" fill="#e6e6e6" r="6.81334"/><circle cx="41.30169" cy="76.65794" fill="#e6e6e6" r="6.81334"/><circle cx="75.79073" cy="76.65794" fill="#e6e6e6" r="6.81334"/><circle cx="110.27977" cy="76.65794" fill="#e6e6e6" r="6.81334"/><circle cx="144.76881" cy="76.65794" fill="#e6e6e6" r="6.81334"/><circle cx="179.25785" cy="76.65794" fill="#e6e6e6" r="6.81334"/><circle cx="213.74689" cy="76.65794" fill="#e6e6e6" r="6.81334"/><circle cx="248.23593" cy="76.65794" fill="#e6e6e6" r="6.81334"/><circle cx="282.72497" cy="76.65794" fill="#e6e6e6" r="6.81334"/><circle cx="317.21401" cy="76.65794" fill="#e6e6e6" r="6.81334"/><circle cx="6.81265" cy="111.57988" fill="#e6e6e6" r="6.81334"/><circle cx="41.30169" cy="111.57988" fill="#e6e6e6" r="6.81334"/><circle cx="75.79073" cy="111.57988" fill="#e6e6e6" r="6.81334"/><circle cx="110.27977" cy="111.57988" fill="#e6e6e6" r="6.81334"/><circle cx="144.76881" cy="111.57988" fill="#e6e6e6" r="6.81334"/><circle cx="179.25785" cy="111.57988" fill="#e6e6e6" r="6.81334"/><circle cx="213.74689" cy="111.57988" fill="#e6e6e6" r="6.81334"/><circle cx="248.23593" cy="111.57988" fill="#e6e6e6" r="6.81334"/><circle cx="282.72497" cy="111.57988" fill="#e6e6e6" r="6.81334"/><circle cx="317.21401" cy="111.57988" fill="#e6e6e6" r="6.81334"/><circle cx="6.81265" cy="146.50183" fill="#e6e6e6" r="6.81334"/><circle cx="41.30169" cy="146.50183" fill="#1889f8" r="6.81334"/><circle cx="75.79073" cy="146.50183" fill="#e6e6e6" r="6.81334"/><circle cx="110.27977" cy="146.50183" fill="#e6e6e6" r="6.81334"/><circle cx="144.76881" cy="146.50183" fill="#e6e6e6" r="6.81334"/><circle cx="179.25785" cy="146.50183" fill="#e6e6e6" r="6.81334"/><circle cx="213.74689" cy="146.50183" fill="#e6e6e6" r="6.81334"/><circle cx="248.23593" cy="146.50183" fill="#e6e6e6" r="6.81334"/><circle cx="282.72497" cy="146.50183" fill="#e6e6e6" r="6.81334"/><circle cx="317.21401" cy="146.50183" fill="#e6e6e6" r="6.81334"/><circle cx="6.81265" cy="181.42378" fill="#e6e6e6" r="6.81334"/><circle cx="41.30169" cy="181.42378" fill="#e6e6e6" r="6.81334"/><circle cx="75.79073" cy="181.42378" fill="#e6e6e6" r="6.81334"/><circle cx="110.27977" cy="181.42378" fill="#e6e6e6" r="6.81334"/><circle cx="144.76881" cy="181.42378" fill="#e6e6e6" r="6.81334"/><circle cx="179.25785" cy="181.42378" fill="#e6e6e6" r="6.81334"/><circle cx="213.74689" cy="181.42378" fill="#e6e6e6" r="6.81334"/><circle cx="248.23593" cy="181.42378" fill="#e6e6e6" r="6.81334"/><circle cx="282.72497" cy="181.42378" fill="#e6e6e6" r="6.81334"/><circle cx="317.21401" cy="181.42378" fill="#e6e6e6" r="6.81334"/><circle cx="6.81265" cy="216.34573" fill="#e6e6e6" r="6.81334"/><circle cx="41.30169" cy="216.34573" fill="#e6e6e6" r="6.81334"/><circle cx="75.79073" cy="216.34573" fill="#1889f8" r="6.81334"/><g fill="#e6e6e6"><circle cx="110.27977" cy="216.34573" r="6.81334"/><circle cx="144.76881" cy="216.34573" r="6.81334"/><circle cx="179.25785" cy="216.34573" r="6.81334"/><circle cx="213.74689" cy="216.34573" r="6.81334"/><circle cx="248.23593" cy="216.34573" r="6.81334"/><circle cx="282.72497" cy="216.34573" r="6.81334"/><circle cx="317.21401" cy="216.34573" r="6.81334"/><circle cx="6.81265" cy="251.26768" r="6.81334"/><circle cx="41.30169" cy="251.26768" r="6.81334"/><circle cx="75.79073" cy="251.26768" r="6.81334"/><circle cx="110.27977" cy="251.26768" r="6.81334"/><circle cx="144.76881" cy="251.26768" r="6.81334"/><circle cx="179.25785" cy="251.26768" r="6.81334"/><circle cx="213.74689" cy="251.26768" r="6.81334"/><circle cx="248.23593" cy="251.26768" r="6.81334"/><circle cx="282.72497" cy="251.26768" r="6.81334"/><circle cx="317.21401" cy="251.26768" r="6.81334"/><circle cx="6.81265" cy="286.18963" r="6.81334"/><circle cx="41.30169" cy="286.18963" r="6.81334"/><circle cx="75.79073" cy="286.18963" r="6.81334"/><circle cx="110.27977" cy="286.18963" r="6.81334"/><circle cx="144.76881" cy="286.18963" r="6.81334"/><circle cx="179.25785" cy="286.18963" r="6.81334"/><circle cx="213.74689" cy="286.18963" r="6.81334"/><circle cx="248.23593" cy="286.18963" r="6.81334"/><circle cx="282.72497" cy="286.18963" r="6.81334"/><circle cx="317.21401" cy="286.18963" r="6.81334"/><circle cx="6.81265" cy="321.11157" r="6.81334"/><circle cx="41.30169" cy="321.11157" r="6.81334"/><circle cx="75.79073" cy="321.11157" r="6.81334"/><circle cx="110.27977" cy="321.11157" r="6.81334"/><circle cx="144.76881" cy="321.11157" r="6.81334"/><circle cx="179.25785" cy="321.11157" r="6.81334"/><circle cx="213.74689" cy="321.11157" r="6.81334"/><circle cx="248.23593" cy="321.11157" r="6.81334"/><circle cx="282.72497" cy="321.11157" r="6.81334"/><circle cx="317.21401" cy="321.11157" r="6.81334"/><path d="m609.20925 193.8305a8.614 8.614 0 0 1 8.614 8.614v344.55938a8.614 8.614 0 0 1 -8.614 8.614h-247.22141a8.614 8.614 0 0 1 -8.614-8.614v-344.55939a8.614 8.614 0 0 1 8.614-8.614h247.22141" transform="translate(-208.80496 -132.93873)"/></g><path d="m362.99057 546.001h245.21575v-342.55373h-245.21575z" fill="#fff" transform="translate(-208.80496 -132.93873)"/><path d="m553.64892 257.64283a1.72279 1.72279 0 0 1 1.72279 1.7228v3.4456a1.72279 1.72279 0 0 1 -1.72279 1.72279h-136.10092a1.72278 1.72278 0 0 1 -1.72279-1.72279v-3.4456a1.72278 1.72278 0 0 1 1.72279-1.7228h136.101" fill="#e6e6e6" transform="translate(-208.80496 -132.93873)"/><path d="m553.64892 274.0094a1.7228 1.7228 0 0 1 1.72279 1.7228v3.4456a1.72279 1.72279 0 0 1 -1.72279 1.72279h-136.10092a1.72278 1.72278 0 0 1 -1.72279-1.72279v-3.4456a1.72279 1.72279 0 0 1 1.72279-1.7228h136.101" fill="#e6e6e6" transform="translate(-208.80496 -132.93873)"/><path d="m553.64892 290.376a1.7228 1.7228 0 0 1 1.72279 1.72279v3.4456a1.7228 1.7228 0 0 1 -1.72279 1.72279h-136.10092a1.72279 1.72279 0 0 1 -1.72279-1.72279v-3.4456a1.72279 1.72279 0 0 1 1.72279-1.72279h136.101" fill="#1889f8" transform="translate(-208.80496 -132.93873)"/><path d="m553.64892 307.10073a1.72279 1.72279 0 0 1 1.72279 1.72279v3.4456a1.72279 1.72279 0 0 1 -1.72279 1.72279h-136.10092a1.72278 1.72278 0 0 1 -1.72279-1.72279v-3.4456a1.72278 1.72278 0 0 1 1.72279-1.72279h136.101" fill="#e6e6e6" transform="translate(-208.80496 -132.93873)"/><path d="m553.64892 323.4673a1.72279 1.72279 0 0 1 1.72279 1.72279v3.4456a1.72279 1.72279 0 0 1 -1.72279 1.7228h-136.10092a1.72278 1.72278 0 0 1 -1.72279-1.7228v-3.4456a1.72278 1.72278 0 0 1 1.72279-1.72279h136.101" fill="#e6e6e6" transform="translate(-208.80496 -132.93873)"/><path d="m553.64892 339.83387a1.7228 1.7228 0 0 1 1.72279 1.72279v3.4456a1.72281 1.72281 0 0 1 -1.72279 1.7228h-136.10092a1.7228 1.7228 0 0 1 -1.72279-1.7228v-3.4456a1.72279 1.72279 0 0 1 1.72279-1.72279h136.101" fill="#e6e6e6" transform="translate(-208.80496 -132.93873)"/><path d="m418.41724 394.89a2.002 2.002 0 0 0 -2 2v92.91552a2.0023 2.0023 0 0 0 2 2h134.13086a2.00229 2.00229 0 0 0 2-2v-92.91552a2.002 2.002 0 0 0 -2-2z" fill="#1889f8" transform="translate(-208.80496 -132.93873)"/><path d="m277.241 161.182-1.408-.374 30.727-115.587h178.225v1.457h-177.106z" fill="#3f3d56"/><path d="m708.15259 194.17916a15.29091 15.29091 0 1 1 15.2909-15.29091 15.30831 15.30831 0 0 1 -15.2909 15.29091zm0-29.12554a13.83463 13.83463 0 1 0 13.83462 13.83463 13.85037 13.85037 0 0 0 -13.83462-13.83463z" fill="#3f3d56" transform="translate(-208.80496 -132.93873)"/><circle cx="499.34763" cy="45.94952" fill="#1889f8" r="5.82511"/><path d="m272.477 356.941 1.407.376-30.947 115.528-178.225-.341.003-1.457 177.105.34z" fill="#3f3d56"/><path d="m258.98467 589.39543a15.29091 15.29091 0 1 1 -15.32018 15.26157 15.30832 15.30832 0 0 1 15.32018-15.26157zm-.05582 29.12548a13.83463 13.83463 0 1 0 -13.80809-13.86111 13.85036 13.85036 0 0 0 13.80809 13.86111z" fill="#3f3d56" transform="translate(-208.80496 -132.93873)"/><circle cx="50.15041" cy="471.74758" fill="#1889f8" r="5.82511"/><path d="m616.828 600.594h-10.277l1.835-56.892 27.162 1.468z" fill="#ffb8b8"/><path d="m827.0356 766.22887c-3.10207 1.41577-5.70046-10.05467-8.31711-7.48324-7.31912 7.19262-14.8815 8.75887-24.65094 5.61857l-.22627-.03823a4.57524 4.57524 0 0 1 -2.88382-5.96221 4.57524 4.57524 0 0 1 3.17428-2.83216l7.78388-1.946 12.22181-21.49353 12.47673-.84288a29.80836 29.80836 0 0 1 5.51307 25.42887c-1.13223 4.62123-2.88009 8.54148-5.09163 9.55081z" fill="#2f2e41" transform="translate(-208.80496 -132.93873)"/><path d="m714.467 593.074-9.557 3.78-19.219-53.579 25.798-8.625z" fill="#ffb8b8"/><path d="m936.60125 755.901c-2.36392 2.45747-8.999-7.25324-10.48647-3.89965-4.16062 9.38044-10.61684 13.61835-20.8565 14.2914l-.22447.04767a4.57523 4.57523 0 0 1 -4.87458-4.48361 4.57524 4.57524 0 0 1 1.91009-3.80114l6.52254-4.67249 3.45974-24.48218 11.29216-5.37276a29.80835 29.80835 0 0 1 14.47942 21.6187c.64682 4.71369.46335 9.00206-1.22193 10.75406z" fill="#2f2e41" transform="translate(-208.80496 -132.93873)"/><path d="m892.07129 451.2996-15.77836 4.05729a8.25773 8.25773 0 0 1 -10.30815-7.68019 8.25773 8.25773 0 0 1 8.51788-8.57081l13.8982.44833 26.78129-9.75184-25.31315-18.8776 2.93635-26.42715 49.3313 39.604a8.19471 8.19471 0 0 1 3.04373 5.80637 8.19474 8.19474 0 0 1 -6.00855 8.48733c-11.55899 9.43313-28.39891 12.32221-47.10054 12.90427z" fill="#ffb8b8" transform="translate(-208.80496 -132.93873)"/><circle cx="647.29605" cy="193.56598" fill="#ffb8b8" r="25.69306"/><path d="m887.66677 361.74092-34.50212 13.94766a46.63067 46.63067 0 0 0 -8.075-30.83168l28.62941-6.60679c-.37229 8.74382 4.35594 16.55972 13.94771 23.49081z" fill="#ffb8b8" transform="translate(-208.80496 -132.93873)"/><path d="m893.90651 421.56905c-27.81248 2.226-43.02531-1.4673-66.43492-15.04879l8.809-20.55445a17.00141 17.00141 0 0 1 7.00343-16.27794l9.1465-6.47877 27.89532-8.075 1.2513.06256a15.2693 15.2693 0 0 1 14.46186 14.07918c6.06018 18.11054 6.09947 35.61689-2.13249 52.29321z" fill="#1889f8" transform="translate(-208.80496 -132.93873)"/><path d="m888.40086 464.51318-59.4611-6.60679-4.40452-19.08628c-9.763-14.73785-5.50172-28.23741 5.8727-41.1089 20.73295 13.306 39.9782 19.05585 67.536 14.68175-7.32859 17.82338-14.09694 35.33986-9.54308 52.12022z" fill="#2f2e41" transform="translate(-208.80496 -132.93873)"/><path d="m934.64837 686.94171-47.34865-2.56931-15.41583-122.59262-12.47949 121.85854-56.1577-2.56932c17.13051-80.11107 29.03118-156.16275 25.69306-226.099l58.727 5.13861c19.90324 20.98571 29.78575 54.48512 35.60324 94.33029s10.50635 86.0361 11.37837 132.50281z" fill="#2f2e41" transform="translate(-208.80496 -132.93873)"/><circle cx="675.58002" cy="161.34488" fill="#2f2e41" r="8.83132"/><path d="m875.28507 292.12157a8.82437 8.82437 0 0 1 8.82714-8.25412c-.18236-.02313-.36309-.05126-.549-.06321a8.83132 8.83132 0 0 0 -1.13325 17.62625c.18595.01195.36879.0072.55261.00761a8.82436 8.82436 0 0 1 -7.6975-9.31653z" fill="#2f2e41" transform="translate(-208.80496 -132.93873)"/><path d="m875.23523 295.89278c-7.87608-6.53374-30.4669 1.77036-31.92466 6.16308-10.65074 1.45149-18.71465 7.66553-18.71465 18.71459v.00006c6.33219 2.59406 13.53384 2.27438 21.31879 0 12.40986 10.11331 13.26059 22.82682 5.71348 37.4293l9.285.18568 11.50907-16.82092.55038 17.06213 21.28338-.42689v-24.45111a51.12092 51.12092 0 0 0 -5.45822-23.42036c-3.31667-6.44346-8.46375-10.20577-13.56257-14.43556z" fill="#2f2e41" transform="translate(-208.80496 -132.93873)"/><ellipse cx="646.6112" cy="200.24128" fill="#ffb8b8" rx="4.22316" ry="5.91243"/><path d="m823.11342 559.92824a1.483 1.483 0 0 1 1.483 1.483v59.31928a1.483 1.483 0 0 1 -1.483 1.483h-42.5616a1.483 1.483 0 0 1 -1.483-1.483v-59.31929a1.483 1.483 0 0 1 1.483-1.483h42.5616" fill="#1889f8" transform="translate(-208.80496 -132.93873)"/><path d="m828.93976 537.92193 1.43732 24.91342a10.8188 10.8188 0 0 1 -12.37492 11.3268c-6.32954-.93081-6.47336-7.121-4.92171-13.32762l5.91167-23.64668c14.50235-51.99824 18.41745-103.03575 17.68369-152.8119a12.4975 12.4975 0 0 1 12.83385-12.71395 12.4912 12.4912 0 0 1 12.12134 12.92719c-2.05288 58.45023-10.57807 111.52941-32.69124 153.33274z" fill="#ffb8b8" transform="translate(-208.80496 -132.93873)"/></svg>